/* XPM */
static char * bottom_left_active_xpm[] = {
"19 17 2 1",
" 	c None",
".	c #353535",
" ..                ",
" ..                ",
" ..                ",
" ..                ",
" ..                ",
" ..                ",
" ..                ",
" ..                ",
" ..                ",
" ..                ",
" ..                ",
" ..                ",
" ..                ",
" ..                ",
" ..                ",
" ..                ",
" .................."};
