/* XPM */
static char * close_prelight_xpm[] = {
"22 22 6 1",
" 	c None",
".	c #4C4C4C",
"+	c #707070",
"@	c #505050",
"#	c #D6D6D6",
"$	c #FFFFFF",
"......................",
"++++++++++++++++++++++",
"@@@@@@@@@@@@@@@@@@@@@@",
"@@@@@@@@@@@@@@@@@@@@@@",
"@@@@@@@@@@@@@@@@@@@@@@",
"@@@@@@@@@@@@@@@@@@@@@@",
"@@@@@@@@@@@@@@@@@@@@@@",
"@@@@@@@#@@@@@@#@@@@@@@",
"@@@@@@#$#@@@@#$#@@@@@@",
"@@@@@@@#$#@@#$#@@@@@@@",
"@@@@@@@@#$##$#@@@@@@@@",
"@@@@@@@@@#$$#@@@@@@@@@",
"@@@@@@@@@#$$#@@@@@@@@@",
"@@@@@@@@#$##$#@@@@@@@@",
"@@@@@@@#$#@@#$#@@@@@@@",
"@@@@@@#$#@@@@#$#@@@@@@",
"@@@@@@@#@@@@@@#@@@@@@@",
"@@@@@@@@@@@@@@@@@@@@@@",
"@@@@@@@@@@@@@@@@@@@@@@",
"@@@@@@@@@@@@@@@@@@@@@@",
"@@@@@@@@@@@@@@@@@@@@@@",
"@@@@@@@@@@@@@@@@@@@@@@"};
