/* XPM */
static char * close_active_xpm[] = {
"22 22 24 1",
" 	c None",
".	c #4C4C4C",
"+	c #707070",
"@	c #505050",
"#	c #7C7D7D",
"$	c #7D7D7D",
"%	c #7E7E7E",
"&	c #A7A7A7",
"*	c #909090",
"=	c #7D7C7C",
"-	c #8F9090",
";	c #A5A7A7",
">	c #90908F",
",	c #919191",
"'	c #A8A8A8",
")	c #A6A8A8",
"!	c #909191",
"~	c #919090",
"{	c #A6A6A8",
"]	c #909091",
"^	c #929292",
"/	c #A9A9A9",
"(	c #808080",
"_	c #818181",
"......................",
"++++++++++++++++++++++",
"@@@@@@@@@@@@@@@@@@@@@@",
"@@@@@@@@@@@@@@@@@@@@@@",
"@@@@@@@@@@@@@@@@@@@@@@",
"@@@@@@@@@@@@@@@@@@@@@@",
"@@@@@@@@@@@@@@@@@@@@@@",
"@@@@@@@#@@@@@@$@@@@@@@",
"@@@@@@%&*@@@@*&=@@@@@@",
"@@@@@@@-;*@@>&*@@@@@@@",
"@@@@@@@@,',,',@@@@@@@@",
"@@@@@@@@@,'',@@@@@@@@@",
"@@@@@@@@@,')!@@@@@@@@@",
"@@@@@@@@~{]^/^@@@@@@@@",
"@@@@@@@^/^@@^/^@@@@@@@",
"@@@@@@(/^@@@@^/(@@@@@@",
"@@@@@@@_@@@@@@_@@@@@@@",
"@@@@@@@@@@@@@@@@@@@@@@",
"@@@@@@@@@@@@@@@@@@@@@@",
"@@@@@@@@@@@@@@@@@@@@@@",
"@@@@@@@@@@@@@@@@@@@@@@",
"@@@@@@@@@@@@@@@@@@@@@@"};
