/* XPM */
static char * close_pressed_xpm[] = {
"22 22 13 1",
" 	c None",
".	c #4C4C4C",
"+	c #707070",
"@	c #505050",
"#	c #212020",
"$	c #D14545",
"%	c #D14445",
"&	c #CC0000",
"*	c #CE2626",
"=	c #CF4343",
"-	c #CD2525",
";	c #2B4141",
">	c #293D3D",
"......................",
"++++++++++++++++++++++",
"@@@@@@@@@@@@@@@@@@@@@@",
"@@@@@@@@@@@@@@@@@@@@@@",
"@@@@@@@@@@@@@@@@@@@@@@",
"@@@@@@@@@@@@@@@@@@@@@@",
"@@@@@@@@@@@@@@@@@@@@@@",
"@@@@@@@@@@@@@@@@@@@@@@",
"@@@@@@#$@@@@@@$#@@@@@@",
"@@@@@@%&*@@@@*&$@@@@@@",
"@@@@@@@*&*@@*&*@@@@@@@",
"@@@@@@@@*&**&*@@@@@@@@",
"@@@@@@@@@*&&*@@@@@@@@@",
"@@@@@@@@@*&&*@@@@@@@@@",
"@@@@@@@@*&**&*@@@@@@@@",
"@@@@@@@*&*@@*&*@@@@@@@",
"@@@@@@=&-@@@@-&=@@@@@@",
"@@@@@@;=@@@@@@=>@@@@@@",
"@@@@@@@@@@@@@@@@@@@@@@",
"@@@@@@@@@@@@@@@@@@@@@@",
"@@@@@@@@@@@@@@@@@@@@@@",
"@@@@@@@@@@@@@@@@@@@@@@"};
