/* XPM */
static char * maximize_active_xpm[] = {
"22 22 6 1",
" 	c None",
".	c #4C4C4C",
"+	c #707070",
"@	c #505050",
"#	c #7F7F7F",
"$	c #A5A7A7",
"......................",
"++++++++++++++++++++++",
"@@@@@@@@@@@@@@@@@@@@@@",
"@@@@@@@@@@@@@@@@@@@@@@",
"@@@@@@@@@@@@@@@@@@@@@@",
"@@@@@@@@@@@@@@@@@@@@@@",
"@@@@@@@@@@@@@@@@@@@@@@",
"@@@@@@##########@@@@@@",
"@@@@@@#$$$$$$$$#@@@@@@",
"@@@@@@#$@@@@@@$#@@@@@@",
"@@@@@@#$@@@@@@$#@@@@@@",
"@@@@@@#$@@@@@@$#@@@@@@",
"@@@@@@#$@@@@@@$#@@@@@@",
"@@@@@@#$@@@@@@$#@@@@@@",
"@@@@@@#$@@@@@@$#@@@@@@",
"@@@@@@#$$$$$$$$#@@@@@@",
"@@@@@@##########@@@@@@",
"@@@@@@@@@@@@@@@@@@@@@@",
"@@@@@@@@@@@@@@@@@@@@@@",
"@@@@@@@@@@@@@@@@@@@@@@",
"@@@@@@@@@@@@@@@@@@@@@@",
"@@@@@@@@@@@@@@@@@@@@@@"};
