/* XPM */
static char * menu_prelight_xpm[] = {
"22 22 18 1",
" 	c None",
".	c #4C4C4C",
"+	c #707070",
"@	c #505050",
"#	c #FFFFFF",
"$	c #A4A2A4",
"%	c #D9D3D9",
"&	c #AFAFB1",
"*	c #B1B1AF",
"=	c #D3D9D3",
"-	c #A2A4A2",
";	c #DADADA",
">	c #B2B2B2",
",	c #CCCCCC",
"'	c #535353",
")	c #545454",
"!	c #B3B3B3",
"~	c #A7A7A7",
"......................",
"++++++++++++++++++++++",
"@@@@@@@@@@@@@@@@@@@@@@",
"@@@@@@@@@@@@@@@@@@@@@@",
"@@@@@@@@@@@@@@@@@@@@@@",
"@@@@@@@@@@@@@@@@@@@@@@",
"@@@@@@@@@@@@@@@@@@@@@@",
"@@@@@@@@@@##@@@@@@@@@@",
"@@@@@@@$%&##*=-@@@@@@@",
"@@@@@@@;######;@@@@@@@",
"@@@@@@@>#,'',#>@@@@@@@",
"@@@@@@###'@@'###@@@@@@",
"@@@@@@###)@@)###@@@@@@",
"@@@@@@@!#,)),#!@@@@@@@",
"@@@@@@@;######;@@@@@@@",
"@@@@@@@~;!##!;~@@@@@@@",
"@@@@@@@@@@##@@@@@@@@@@",
"@@@@@@@@@@@@@@@@@@@@@@",
"@@@@@@@@@@@@@@@@@@@@@@",
"@@@@@@@@@@@@@@@@@@@@@@",
"@@@@@@@@@@@@@@@@@@@@@@",
"@@@@@@@@@@@@@@@@@@@@@@"};
