/* XPM */
static char * menu_active_xpm[] = {
"22 22 27 1",
" 	c None",
".	c #4C4C4C",
"+	c #707070",
"@	c #505050",
"#	c #A7A7A7",
"$	c #706F70",
"%	c #919191",
"&	c #777778",
"*	c #787877",
"=	c #6F706F",
"-	c #909191",
";	c #A5A7A7",
">	c #A7A7A5",
",	c #7A7A7A",
"'	c #A8A8A8",
")	c #898989",
"!	c #404040",
"~	c #414141",
"{	c #A6A8A8",
"]	c #7A7979",
"^	c #A8A6A6",
"/	c #8A8A8A",
"(	c #424242",
"_	c #A9A9A9",
":	c #7B7B7B",
"<	c #939393",
"[	c #747474",
"......................",
"++++++++++++++++++++++",
"@@@@@@@@@@@@@@@@@@@@@@",
"@@@@@@@@@@@@@@@@@@@@@@",
"@@@@@@@@@@@@@@@@@@@@@@",
"@@@@@@@@@@@@@@@@@@@@@@",
"@@@@@@@@@@@@@@@@@@@@@@",
"@@@@@@@@@@##@@@@@@@@@@",
"@@@@@@@$%&##*%=@@@@@@@",
"@@@@@@@-;##>>#%@@@@@@@",
"@@@@@@@,')!!)',@@@@@@@",
"@@@@@@'''!@@!'''@@@@@@",
"@@@@@@'''~@@~{{'@@@@@@",
"@@@@@@@]^/~(/_:@@@@@@@",
"@@@@@@@<______<@@@@@@@",
"@@@@@@@[<:__:<[@@@@@@@",
"@@@@@@@@@@__@@@@@@@@@@",
"@@@@@@@@@@@@@@@@@@@@@@",
"@@@@@@@@@@@@@@@@@@@@@@",
"@@@@@@@@@@@@@@@@@@@@@@",
"@@@@@@@@@@@@@@@@@@@@@@",
"@@@@@@@@@@@@@@@@@@@@@@"};
