/* XPM */
static char * menu_pressed_xpm[] = {
"22 22 18 1",
" 	c None",
".	c #4C4C4C",
"+	c #707070",
"@	c #505050",
"#	c #FFFFFF",
"$	c #A5A5A5",
"%	c #DADADA",
"&	c #B2B2B2",
"*	c #B0B2B0",
"=	c #CCCCCC",
"-	c #535353",
";	c #B0B2B2",
">	c #545454",
",	c #B3B3B3",
"'	c #C8CCCC",
")	c #A7A7A7",
"!	c #B1B1B3",
"~	c #B3B1B1",
"......................",
"++++++++++++++++++++++",
"@@@@@@@@@@@@@@@@@@@@@@",
"@@@@@@@@@@@@@@@@@@@@@@",
"@@@@@@@@@@@@@@@@@@@@@@",
"@@@@@@@@@@@@@@@@@@@@@@",
"@@@@@@@@@@@@@@@@@@@@@@",
"@@@@@@@@@@@@@@@@@@@@@@",
"@@@@@@@@@@##@@@@@@@@@@",
"@@@@@@@$%&##&%$@@@@@@@",
"@@@@@@@%######%@@@@@@@",
"@@@@@@@*#=--=#;@@@@@@@",
"@@@@@@###>@@>###@@@@@@",
"@@@@@@###>@@>###@@@@@@",
"@@@@@@@,#'>>'#,@@@@@@@",
"@@@@@@@%######%@@@@@@@",
"@@@@@@@)%!##~%)@@@@@@@",
"@@@@@@@@@@##@@@@@@@@@@",
"@@@@@@@@@@@@@@@@@@@@@@",
"@@@@@@@@@@@@@@@@@@@@@@",
"@@@@@@@@@@@@@@@@@@@@@@",
"@@@@@@@@@@@@@@@@@@@@@@"};
