/* XPM */
static char * shade_prelight_xpm[] = {
"22 22 12 1",
" 	c None",
".	c #4C4C4C",
"+	c #707070",
"@	c #505050",
"#	c #FFFFFF",
"$	c #D6D6D6",
"%	c #D9D9D9",
"&	c #D5D5D5",
"*	c #C8C8C8",
"=	c #D7D7D7",
"-	c #494949",
";	c #C6C6C6",
"......................",
"++++++++++++++++++++++",
"@@@@@@@@@@@@@@@@@@@@@@",
"@@@@@@@@@@@@@@@@@@@@@@",
"@@@@@@@@@@@@@@@@@@@@@@",
"@@@@@@@@@@@@@@@@@@@@@@",
"@@@@@@@@@@@@@@@@@@@@@@",
"@@@@@@@@@@######@@@@@@",
"@@@@@@@@@@######@@@@@@",
"@@@@@@@@@@@@$###@@@@@@",
"@@@@@@@@@@@%#&##@@@@@@",
"@@@@@@@@@@*#=@##@@@@@@",
"@@@@@@@@@@-;@@##@@@@@@",
"@@@@@@@@@@@@@@@@@@@@@@",
"@@@@@@###@@@@@@@@@@@@@",
"@@@@@@###@@@@@@@@@@@@@",
"@@@@@@###@@@@@@@@@@@@@",
"@@@@@@@@@@@@@@@@@@@@@@",
"@@@@@@@@@@@@@@@@@@@@@@",
"@@@@@@@@@@@@@@@@@@@@@@",
"@@@@@@@@@@@@@@@@@@@@@@",
"@@@@@@@@@@@@@@@@@@@@@@"};
