/* XPM */
static char * shade_pressed_xpm[] = {
"22 22 15 1",
" 	c None",
".	c #4C4C4C",
"+	c #707070",
"@	c #505050",
"#	c #FFFFFF",
"$	c #D6D6D6",
"%	c #2A2A2A",
"&	c #D9D9D9",
"*	c #D0D5D5",
"=	c #C8C8C8",
"-	c #D2D7D7",
";	c #232323",
">	c #494949",
",	c #C6C6C6",
"'	c #2B2B2B",
"......................",
"++++++++++++++++++++++",
"@@@@@@@@@@@@@@@@@@@@@@",
"@@@@@@@@@@@@@@@@@@@@@@",
"@@@@@@@@@@@@@@@@@@@@@@",
"@@@@@@@@@@@@@@@@@@@@@@",
"@@@@@@@@@@@@@@@@@@@@@@",
"@@@@@@@@@@@@@@@@@@@@@@",
"@@@@@@@@@@######@@@@@@",
"@@@@@@@@@@######@@@@@@",
"@@@@@@@@@@@@$###@@@@@@",
"@@@@@@@@@@%&#*##@@@@@@",
"@@@@@@@@@@=#-;##@@@@@@",
"@@@@@@@@@@>,'@##@@@@@@",
"@@@@@@@@@@@@@@@@@@@@@@",
"@@@@@@###@@@@@@@@@@@@@",
"@@@@@@###@@@@@@@@@@@@@",
"@@@@@@###@@@@@@@@@@@@@",
"@@@@@@@@@@@@@@@@@@@@@@",
"@@@@@@@@@@@@@@@@@@@@@@",
"@@@@@@@@@@@@@@@@@@@@@@",
"@@@@@@@@@@@@@@@@@@@@@@"};
