/* XPM */
static char * shade_inactive_xpm[] = {
"22 22 7 1",
" 	c None",
".	c #707070",
"+	c #505050",
"@	c #6C6C6C",
"#	c #616161",
"$	c #606060",
"%	c #5C5C5C",
"......................",
"++++++++++++++++++++++",
"++++++++++++++++++++++",
"++++++++++++++++++++++",
"++++++++++++++++++++++",
"++++++++++++++++++++++",
"++++++++++++++++++++++",
"++++++++++@@@@@@++++++",
"++++++++++@@@@@@++++++",
"++++++++++++#@@@++++++",
"+++++++++++#@$@@++++++",
"++++++++++%@#+@@++++++",
"+++++++++++%++@@++++++",
"++++++++++++++++++++++",
"++++++@@@+++++++++++++",
"++++++@@@+++++++++++++",
"++++++@@@+++++++++++++",
"++++++++++++++++++++++",
"++++++++++++++++++++++",
"++++++++++++++++++++++",
"++++++++++++++++++++++",
"++++++++++++++++++++++"};
