/* XPM */
static char * title_1_active_shaded_xpm[] = {
"10 22 3 1",
" 	c None",
".	c #707070",
"+	c #505050",
"..........",
"++++++++++",
"++++++++++",
"++++++++++",
"++++++++++",
"++++++++++",
"++++++++++",
"++++++++++",
"++++++++++",
"++++++++++",
"++++++++++",
"++++++++++",
"++++++++++",
"++++++++++",
"++++++++++",
"++++++++++",
"++++++++++",
"++++++++++",
"++++++++++",
"++++++++++",
"++++++++++",
"++++++++++"};
