/* XPM */
static char * top_left_inactive_xpm[] = {
"15 22 4 1",
" 	c None",
".	c #707070",
"+	c #505050",
"@	c #5E5E5E",
"  .............",
" .+++++++++++++",
"@++++++++++++++",
"@++++++++++++++",
"@++++++++++++++",
"@++++++++++++++",
"@++++++++++++++",
"@++++++++++++++",
"@++++++++++++++",
"@++++++++++++++",
"@++++++++++++++",
"@++++++++++++++",
"@++++++++++++++",
"@++++++++++++++",
"@++++++++++++++",
"@++++++++++++++",
"@++++++++++++++",
"@++++++++++++++",
"@++++++++++++++",
"@++++++++++++++",
"@++++++++++++++",
"@++++++++++++++"};
