/* XPM */
static char * top_left_active_xpm[] = {
"15 22 5 1",
" 	c None",
".	c #4C4C4C",
"+	c #707070",
"@	c #5E5E5E",
"#	c #505050",
"  .............",
" ++++++++++++++",
"@@#############",
"@##############",
"@##############",
"@##############",
"@##############",
"@##############",
"@##############",
"@##############",
"@##############",
"@##############",
"@##############",
"@##############",
"@##############",
"@##############",
"@##############",
"@##############",
"@##############",
"@##############",
"@##############",
"@##############"};
