/* XPM */
static char * top_right_active_shaded_xpm[] = {
"15 22 5 1",
" 	c None",
".	c #4C4C4C",
"+	c #707070",
"@	c #505050",
"#	c #5E5E5E",
".............  ",
"++++++++++++++ ",
"@@@@@@@@@@@@@##",
"@@@@@@@@@@@@@@#",
"@@@@@@@@@@@@@@#",
"@@@@@@@@@@@@@@#",
"@@@@@@@@@@@@@@#",
"@@@@@@@@@@@@@@#",
"@@@@@@@@@@@@@@#",
"@@@@@@@@@@@@@@#",
"@@@@@@@@@@@@@@#",
"@@@@@@@@@@@@@@#",
"@@@@@@@@@@@@@@#",
"@@@@@@@@@@@@@@#",
"@@@@@@@@@@@@@@#",
"@@@@@@@@@@@@@@#",
"@@@@@@@@@@@@@@#",
"@@@@@@@@@@@@@@#",
"@@@@@@@@@@@@@@#",
"@@@@@@@@@@@@@@#",
"@@@@@@@@@@@@@@#",
"@@@@@@@@@@@@@@#"};
