/* XPM */
static char * bottom_left_inactive_xpm[] = {
"19 17 2 1",
" 	c None",
".	c #262626",
" ..                ",
" ..                ",
" ..                ",
" ..                ",
" ..                ",
" ..                ",
" ..                ",
" ..                ",
" ..                ",
" ..                ",
" ..                ",
" ..                ",
" ..                ",
" ..                ",
" ..                ",
" ..                ",
" .................."};
