/* XPM */
static char * bottom_right_active_xpm[] = {
"19 17 2 1",
" 	c None",
".	c #262626",
"                .. ",
"                .. ",
"                .. ",
"                .. ",
"                .. ",
"                .. ",
"                .. ",
"                .. ",
"                .. ",
"                .. ",
"                .. ",
"                .. ",
"                .. ",
"                .. ",
"                .. ",
"                .. ",
".................. "};
