/* XPM */
static char * close_inactive_xpm[] = {
"22 22 6 1",
" 	c None",
".	c #3F3F3F",
"+	c #262626",
"@	c #585858",
"#	c #6C6C6C",
"$	c #616161",
"......................",
"++++++++++++++++++++++",
"++++++++++++++++++++++",
"++++++++++++++++++++++",
"++++++++++++++++++++++",
"++++++++++++++++++++++",
"++++++++++++++++++++++",
"+++++++@++++++@+++++++",
"++++++@#$++++$#@++++++",
"+++++++$#$++$#$+++++++",
"++++++++$#$$#$++++++++",
"+++++++++$##$+++++++++",
"+++++++++$##$+++++++++",
"++++++++$#$$#$++++++++",
"+++++++$#$++$#$+++++++",
"++++++@#$++++$#@++++++",
"+++++++@++++++@+++++++",
"++++++++++++++++++++++",
"++++++++++++++++++++++",
"++++++++++++++++++++++",
"++++++++++++++++++++++",
"++++++++++++++++++++++"};
