/* XPM */
static char * maximize_pressed_xpm[] = {
"22 22 6 1",
" 	c None",
".	c #3F3F3F",
"+	c #262626",
"@	c #8C8C8C",
"#	c #C4C4C4",
"$	c #E6E6E6",
"......................",
"++++++++++++++++++++++",
"++++++++++++++++++++++",
"++++++++++++++++++++++",
"++++++++++++++++++++++",
"++++++++++++++++++++++",
"++++++++++++++++++++++",
"++++++++++++++++++++++",
"++++++@########@++++++",
"++++++#$$$$$$$$#++++++",
"++++++#$++++++$#++++++",
"++++++#$++++++$#++++++",
"++++++#$++++++$#++++++",
"++++++#$++++++$#++++++",
"++++++#$++++++$#++++++",
"++++++#$++++++$#++++++",
"++++++#$$$$$$$$#++++++",
"++++++@########@++++++",
"++++++++++++++++++++++",
"++++++++++++++++++++++",
"++++++++++++++++++++++",
"++++++++++++++++++++++"};
