/* XPM */
static char * maximize_inactive_xpm[] = {
"22 22 5 1",
" 	c None",
".	c #3F3F3F",
"+	c #262626",
"@	c #6C6C6C",
"#	c #616161",
"......................",
"++++++++++++++++++++++",
"++++++++++++++++++++++",
"++++++++++++++++++++++",
"++++++++++++++++++++++",
"++++++++++++++++++++++",
"++++++++++++++++++++++",
"++++++@@@@@@@@@@++++++",
"++++++@########@++++++",
"++++++@#++++++#@++++++",
"++++++@#++++++#@++++++",
"++++++@#++++++#@++++++",
"++++++@#++++++#@++++++",
"++++++@#++++++#@++++++",
"++++++@#++++++#@++++++",
"++++++@########@++++++",
"++++++@@@@@@@@@@++++++",
"++++++++++++++++++++++",
"++++++++++++++++++++++",
"++++++++++++++++++++++",
"++++++++++++++++++++++",
"++++++++++++++++++++++"};
