/* XPM */
static char * maximize_prelight_xpm[] = {
"22 22 7 1",
" 	c None",
".	c #222222",
"+	c #3F3F3F",
"@	c #262626",
"#	c #8C8C8C",
"$	c #C4C4C4",
"%	c #E6E6E6",
"......................",
"++++++++++++++++++++++",
"@@@@@@@@@@@@@@@@@@@@@@",
"@@@@@@@@@@@@@@@@@@@@@@",
"@@@@@@@@@@@@@@@@@@@@@@",
"@@@@@@@@@@@@@@@@@@@@@@",
"@@@@@@@@@@@@@@@@@@@@@@",
"@@@@@@#$$$$$$$$#@@@@@@",
"@@@@@@$%%%%%%%%$@@@@@@",
"@@@@@@$%@@@@@@%$@@@@@@",
"@@@@@@$%@@@@@@%$@@@@@@",
"@@@@@@$%@@@@@@%$@@@@@@",
"@@@@@@$%@@@@@@%$@@@@@@",
"@@@@@@$%@@@@@@%$@@@@@@",
"@@@@@@$%@@@@@@%$@@@@@@",
"@@@@@@$%%%%%%%%$@@@@@@",
"@@@@@@#$$$$$$$$#@@@@@@",
"@@@@@@@@@@@@@@@@@@@@@@",
"@@@@@@@@@@@@@@@@@@@@@@",
"@@@@@@@@@@@@@@@@@@@@@@",
"@@@@@@@@@@@@@@@@@@@@@@",
"@@@@@@@@@@@@@@@@@@@@@@"};
