/* XPM */
static char * shade_active_xpm[] = {
"22 22 16 1",
" 	c None",
".	c #222222",
"+	c #3F3F3F",
"@	c #262626",
"#	c #A7A7A7",
"$	c #8E8E8D",
"%	c #919191",
"&	c #A8A8A8",
"*	c #8F8F8F",
"=	c #A5A7A5",
"-	c #868685",
";	c #909090",
">	c #3B3B3B",
",	c #858686",
"'	c #A6A8A8",
")	c #A9A9A9",
"......................",
"++++++++++++++++++++++",
"@@@@@@@@@@@@@@@@@@@@@@",
"@@@@@@@@@@@@@@@@@@@@@@",
"@@@@@@@@@@@@@@@@@@@@@@",
"@@@@@@@@@@@@@@@@@@@@@@",
"@@@@@@@@@@@@@@@@@@@@@@",
"@@@@@@@@@@######@@@@@@",
"@@@@@@@@@@######@@@@@@",
"@@@@@@@@@@@@$###@@@@@@",
"@@@@@@@@@@@%&*&=@@@@@@",
"@@@@@@@@@@-&;@&&@@@@@@",
"@@@@@@@@@@>,@@'&@@@@@@",
"@@@@@@@@@@@@@@@@@@@@@@",
"@@@@@@)))@@@@@@@@@@@@@",
"@@@@@@)))@@@@@@@@@@@@@",
"@@@@@@)))@@@@@@@@@@@@@",
"@@@@@@@@@@@@@@@@@@@@@@",
"@@@@@@@@@@@@@@@@@@@@@@",
"@@@@@@@@@@@@@@@@@@@@@@",
"@@@@@@@@@@@@@@@@@@@@@@",
"@@@@@@@@@@@@@@@@@@@@@@"};
