/* XPM */
static char * top_left_inactive_xpm[] = {
"15 22 4 1",
" 	c None",
".	c #3F3F3F",
"+	c #262626",
"@	c #2C2C2C",
"  .............",
" .+++++++++++++",
".++++++++++++++",
"@++++++++++++++",
"@++++++++++++++",
"@++++++++++++++",
"@++++++++++++++",
"@++++++++++++++",
"@++++++++++++++",
"@++++++++++++++",
"@++++++++++++++",
"@++++++++++++++",
"@++++++++++++++",
"@++++++++++++++",
"@++++++++++++++",
"@++++++++++++++",
"@++++++++++++++",
"@++++++++++++++",
"@++++++++++++++",
"@++++++++++++++",
"@++++++++++++++",
"@++++++++++++++"};
