/* XPM */
static char * top_right_active_shaded_xpm[] = {
"15 22 6 1",
" 	c None",
".	c #222222",
"+	c #3F3F3F",
"@	c #363636",
"#	c #262626",
"$	c #2C2C2C",
".............  ",
"++++++++++++@@ ",
"#############$$",
"##############$",
"##############$",
"##############$",
"##############$",
"##############$",
"##############$",
"##############$",
"##############$",
"##############$",
"##############$",
"##############$",
"##############$",
"##############$",
"##############$",
"##############$",
"##############$",
"##############$",
"##############$",
"##############$"};
