/* XPM */
static char * top_left_active_xpm[] = {
"15 22 6 1",
" 	c None",
".	c #222222",
"+	c #2C2C2C",
"@	c #363636",
"#	c #3F3F3F",
"$	c #262626",
"  .............",
" +@############",
"++$$$$$$$$$$$$$",
"+$$$$$$$$$$$$$$",
"+$$$$$$$$$$$$$$",
"+$$$$$$$$$$$$$$",
"+$$$$$$$$$$$$$$",
"+$$$$$$$$$$$$$$",
"+$$$$$$$$$$$$$$",
"+$$$$$$$$$$$$$$",
"+$$$$$$$$$$$$$$",
"+$$$$$$$$$$$$$$",
"+$$$$$$$$$$$$$$",
"+$$$$$$$$$$$$$$",
"+$$$$$$$$$$$$$$",
"+$$$$$$$$$$$$$$",
"+$$$$$$$$$$$$$$",
"+$$$$$$$$$$$$$$",
"+$$$$$$$$$$$$$$",
"+$$$$$$$$$$$$$$",
"+$$$$$$$$$$$$$$",
"+$$$$$$$$$$$$$$"};
